# xmcd CD database file
#
# Track frame offsets:
#	150
#	24748
#	44815
#	52279
#	73808
#	100028
#	124343
#	144119
#	164192
#	187637
#	206041
#	229239
#	249367
#
# Disc length: 3625 seconds
#
# Revision: 1
# Processed by: cddbd v1.5.2PL0 Copyright (c) Steve Scherf et al.
# Submitted via: CDex 1.51
#
DISCID=c40e270d
DTITLE=Metropolitan Jazz Affair - Bird Of Spring
DYEAR=2007
DGENRE=Jazz
TTITLE0=Bird Of Spring
TTITLE1=Drifting (RNB MIX)
TTITLE2=Day Dreaming (INTERLUDE)
TTITLE3=Escapism
TTITLE4=Find A Way
TTITLE5=Fourmi Rouge
TTITLE6=Everybody Knows
TTITLE7=Roaming
TTITLE8=Sigh Of Dawn
TTITLE9=Swagger
TTITLE10=Turned To Clay
TTITLE11=You Can Dig
TTITLE12=Drifting (SWING MIX)
EXTD=YEAR: 2007
EXTT0=
EXTT1=
EXTT2=
EXTT3=
EXTT4=
EXTT5=
EXTT6=
EXTT7=
EXTT8=
EXTT9=
EXTT10=
EXTT11=
EXTT12=
PLAYORDER=
